<?xml version="1.0" encoding="UTF-8"?>
<svg id="Layer_1" data-name="Layer 1" xmlns="http://www.w3.org/2000/svg" viewBox="0 0 2000 2000">
  <defs>
    <style>
      .cls-1 {
        stroke: #fff;
        stroke-miterlimit: 10;
        stroke-width: 5.46px;
      }

      .cls-1, .cls-2 {
        fill: #fff;
      }

      .cls-3, .cls-4, .cls-5, .cls-2 {
        stroke-width: 0px;
      }

      .cls-4 {
        fill: #e30b12;
      }

      .cls-5 {
        fill: red;
      }
    </style>
  </defs>
  <g>
    <rect class="cls-4" x="122.94" y="742.43" width="514.71" height="514.71" rx="94.36" ry="94.36"/>
    <path class="cls-1" d="M448.13,1113.33c-19.91,11.9-42.64,18.25-65.84,18.39-72.57-.62-130.9-59.95-130.29-132.52.62-72.57,59.95-130.9,132.52-130.29,19.71.17,39.12,4.76,56.81,13.45h39.98c-64.75-55.2-161.99-47.45-217.19,17.3-55.2,64.75-47.45,161.99,17.3,217.19,59.13,50.4,146.54,48.89,203.89-3.53h-37.18Z"/>
    <path class="cls-2" d="M475.45,920.48c-.55-.26-1.18-.26-1.73,0l-22.39,11.06,9.06,4.53,22.92-11.73-7.86-3.86Z"/>
    <polygon class="cls-2" points="488.78 927.14 487.58 926.48 464.65 938.21 465.85 938.87 474.65 943.14 497.84 931.54 488.78 927.14"/>
    <polygon class="cls-2" points="464.65 938.21 460.39 936.07 483.18 924.35 487.58 926.48 464.65 938.21"/>
    <path class="cls-2" d="M472.78,946.47v24.26l-22.39-12.26c-.61-.32-1.01-.92-1.07-1.6v-21.99l23.46,11.59Z"/>
    <path class="cls-2" d="M499.84,934.87l-23.32,11.46v24.39l23.32-12.26v-23.59Z"/>
    <path class="cls-2" d="M397.75,905.15c3.25-7.66,11.42-12,19.59-10.4,4.17.62,7.94,2.81,10.53,6.13l6.93-1.47c2.96-.51,5.81,1.35,6.53,4.26v1.33l-10.4,1.87-34.12,6c-.23-2.61.09-5.25.93-7.73Z"/>
    <path class="cls-2" d="M396.28,917.68l38.65-6.66c6.44,9.86,3.66,23.08-6.21,29.51-9.86,6.44-23.08,3.66-29.51-6.21-2.27-3.48-3.48-7.55-3.46-11.71-.03-1.66.15-3.32.53-4.93Z"/>
    <path class="cls-2" d="M340.31,969.39l26.65-26.65c7.57-8.13,20.31-8.59,28.44-1.01.35.32.69.66,1.01,1.01l19.19,18.79c7.2,7.22,16.56,11.9,26.65,13.33,5.6.86,9.73,5.67,9.73,11.33h0c.02,3.31-1.39,6.47-3.86,8.66-2.56,2.13-5.89,3.09-9.2,2.67-15.19-2.01-29.27-9.04-39.98-19.99l-2.27-2.53c-1.16-1.17-2.75-1.8-4.4-1.73-1.63-.06-3.2.62-4.26,1.87l-12.53,13.33c-2.32,2.42-2.32,6.24,0,8.66l7.73,7.86c6.26,6.02,9.73,14.37,9.6,23.06v1.47l-15.46-17.73c-9.83-9.82-23.16-15.33-37.05-15.33h-2.67c-2.8-3.88-4.29-8.54-4.26-13.33.55-5.27,3.01-10.16,6.93-13.73Z"/>
    <path class="cls-2" d="M480.11,1082.54c-18.24,18.4-47.94,18.53-66.34.29-.1-.1-.2-.2-.29-.29l-13.33-13.33,13.33-13.33,13.33,13.33c11.1,10.91,28.89,10.91,39.98,0,5.25-5.33,8.17-12.51,8.13-19.99-.03-15.53-12.64-28.1-28.17-28.07-7.43.01-14.55,2.97-19.8,8.21l-26.65,26.65-26.65,26.65c-18.25,18.39-47.96,18.49-66.34.24-18.39-18.25-18.49-47.96-.24-66.34,8.83-8.9,20.86-13.89,33.4-13.86,12.38-.07,24.29,4.71,33.19,13.33l13.33,13.33-13.33,13.33-13.33-13.33c-11.04-10.92-28.85-10.83-39.77.21-10.92,11.04-10.83,28.85.21,39.77,10.96,10.84,28.6,10.84,39.55,0l26.65-26.65,26.65-26.65c18.24-18.4,47.94-18.53,66.34-.29.1.1.2.2.29.29,18.4,18.24,18.53,47.94.29,66.34-.1.1-.2.2-.29.29l-.13-.13Z"/>
  </g>
  <g>
    <g>
      <path class="cls-3" d="M886.66,1160c-5.02-1.75-8.9-4.07-11.64-6.95l3.05-6c2.67,2.67,6.21,4.83,10.64,6.48,4.42,1.65,8.99,2.48,13.69,2.48,6.6,0,11.55-1.21,14.85-3.63,3.3-2.42,4.95-5.56,4.95-9.42,0-2.95-.9-5.3-2.69-7.06-1.79-1.75-3.98-3.11-6.58-4.05-2.6-.95-6.21-1.98-10.85-3.11-5.55-1.4-9.97-2.75-13.27-4.05-3.3-1.3-6.13-3.28-8.48-5.95-2.35-2.67-3.53-6.28-3.53-10.85,0-3.72.98-7.11,2.95-10.16,1.96-3.05,4.98-5.49,9.06-7.32,4.07-1.82,9.13-2.74,15.16-2.74,4.21,0,8.34.58,12.37,1.74,4.04,1.16,7.53,2.76,10.48,4.79l-2.63,6.21c-3.09-2.04-6.39-3.56-9.9-4.58-3.51-1.02-6.95-1.53-10.32-1.53-6.46,0-11.32,1.25-14.58,3.74-3.26,2.49-4.9,5.7-4.9,9.64,0,2.95.9,5.32,2.69,7.11,1.79,1.79,4.04,3.16,6.74,4.11,2.7.95,6.33,1.98,10.9,3.11,5.41,1.33,9.78,2.65,13.11,3.95,3.33,1.3,6.16,3.26,8.48,5.9,2.32,2.63,3.47,6.2,3.47,10.69,0,3.72-1,7.11-3,10.16-2,3.05-5.07,5.48-9.21,7.27-4.14,1.79-9.23,2.68-15.27,2.68-5.48,0-10.72-.88-15.74-2.63Z"/>
      <path class="cls-3" d="M1131.85,1088.29v73.71h-7.69v-34.01h-46.12v34.01h-7.79v-73.71h7.79v32.85h46.12v-32.85h7.69Z"/>
      <path class="cls-3" d="M1331.4,1155.27v6.74h-52.12v-73.71h50.55v6.74h-42.75v26.22h38.12v6.63h-38.12v27.38h44.33Z"/>
      <path class="cls-3" d="M1530.79,1130.26c2.63,3.12,3.95,7.14,3.95,12.06,0,6.32-2.33,11.18-7,14.58-4.67,3.41-11.57,5.11-20.69,5.11h-33.91v-73.71h31.8c8.21,0,14.58,1.65,19.11,4.95,4.53,3.3,6.79,7.97,6.79,14.01,0,4.07-1,7.53-3,10.37-2,2.84-4.76,4.97-8.27,6.37,4.84,1.05,8.58,3.14,11.21,6.27ZM1480.93,1094.72v26.75h23.48c5.97,0,10.57-1.14,13.8-3.42,3.23-2.28,4.84-5.6,4.84-9.95s-1.62-7.67-4.84-9.95c-3.23-2.28-7.83-3.42-13.8-3.42h-23.48ZM1521.9,1152.21c3.37-2.25,5.05-5.76,5.05-10.53,0-9.2-6.67-13.79-20.01-13.79h-26.01v27.69h26.01c6.6,0,11.58-1.12,14.95-3.37Z"/>
      <path class="cls-3" d="M1722.18,1142.31h-41.07l-8.85,19.69h-8.11l33.7-73.71h7.69l33.7,73.71h-8.21l-8.85-19.69ZM1719.34,1135.99l-17.69-39.59-17.69,39.59h35.38Z"/>
    </g>
    <g>
      <g>
        <path class="cls-3" d="M782.12,1008.14c-14.58-7.83-26.03-18.7-34.37-32.6-8.34-13.9-12.51-29.61-12.51-47.13s4.17-33.23,12.51-47.13c8.34-13.9,19.8-24.77,34.37-32.6,14.57-7.83,30.96-11.75,49.16-11.75,15.33,0,29.19,2.7,41.57,8.09,12.38,5.39,22.78,13.14,31.21,23.25l-26.28,24.26c-11.97-13.81-26.79-20.72-44.48-20.72-10.95,0-20.72,2.4-29.32,7.2-8.59,4.8-15.29,11.5-20.09,20.09-4.8,8.59-7.2,18.37-7.2,29.32s2.4,20.72,7.2,29.32c4.8,8.59,11.5,15.29,20.09,20.09,8.59,4.8,18.36,7.2,29.32,7.2,17.69,0,32.51-6.99,44.48-20.98l26.28,24.26c-8.43,10.28-18.87,18.11-31.34,23.5-12.47,5.39-26.37,8.09-41.7,8.09-18.03,0-34.33-3.92-48.9-11.75Z"/>
        <path class="cls-3" d="M1044.58,978.95h-82.14l-15.67,37.91h-41.95l78.85-176.91h40.44l79.1,176.91h-42.96l-15.67-37.91ZM1031.69,947.87l-28.05-67.73-28.05,67.73h56.11Z"/>
        <path class="cls-3" d="M1282.65,1016.86l-.25-106.15-52.06,87.44h-18.45l-51.81-85.17v103.87h-38.41v-176.91h33.87l66.21,109.94,65.2-109.94h33.61l.51,176.91h-38.41Z"/>
        <path class="cls-3" d="M1480.41,847.79c11.54,5.22,20.43,12.64,26.66,22.24,6.23,9.6,9.35,20.98,9.35,34.12s-3.12,24.31-9.35,33.99c-6.24,9.69-15.12,17.1-26.66,22.24-11.54,5.14-25.15,7.71-40.82,7.71h-35.63v48.78h-40.94v-176.91h76.58c15.67,0,29.27,2.61,40.82,7.83ZM1465.37,926.77c6.4-5.31,9.6-12.85,9.6-22.62s-3.2-17.56-9.6-22.87c-6.41-5.31-15.76-7.96-28.05-7.96h-33.36v61.41h33.36c12.3,0,21.65-2.65,28.05-7.96Z"/>
        <path class="cls-3" d="M1564.31,998.92c-14.07-13.98-21.1-33.95-21.1-59.9v-99.07h40.94v97.55c0,31.68,13.14,47.51,39.43,47.51,12.8,0,22.58-3.83,29.32-11.5,6.74-7.66,10.11-19.67,10.11-36.01v-97.55h40.44v99.07c0,25.95-7.04,45.91-21.1,59.9-14.07,13.99-33.74,20.98-59.01,20.98s-44.95-6.99-59.01-20.98Z"/>
        <path class="cls-3" d="M1761.44,1014.21c-13.06-3.79-23.55-8.72-31.46-14.78l13.9-30.83c7.58,5.56,16.59,10.03,27.04,13.39,10.44,3.37,20.89,5.05,31.34,5.05,11.63,0,20.22-1.73,25.78-5.18,5.56-3.45,8.34-8.04,8.34-13.77,0-4.21-1.64-7.71-4.93-10.49s-7.5-5.01-12.64-6.7c-5.14-1.68-12.09-3.54-20.85-5.56-13.48-3.2-24.52-6.4-33.11-9.6-8.59-3.2-15.97-8.34-22.11-15.42-6.15-7.08-9.22-16.51-9.22-28.31,0-10.27,2.78-19.59,8.34-27.93,5.56-8.34,13.94-14.95,25.15-19.84,11.2-4.89,24.89-7.33,41.07-7.33,11.29,0,22.32,1.35,33.11,4.04,10.78,2.7,20.22,6.57,28.31,11.63l-12.64,31.09c-16.34-9.26-32.69-13.9-49.03-13.9-11.46,0-19.93,1.86-25.4,5.56-5.48,3.71-8.21,8.59-8.21,14.66s3.16,10.57,9.48,13.52c6.32,2.95,15.96,5.86,28.94,8.72,13.48,3.2,24.51,6.41,33.11,9.6,8.59,3.2,15.96,8.26,22.11,15.16,6.15,6.91,9.22,16.26,9.22,28.05,0,10.11-2.82,19.33-8.47,27.67-5.65,8.34-14.11,14.95-25.4,19.84-11.29,4.88-25.02,7.33-41.19,7.33-13.99,0-27.51-1.9-40.56-5.69Z"/>
      </g>
      <circle class="cls-5" cx="832.69" cy="928.5" r="33.61"/>
    </g>
  </g>
</svg>