<svg width="400" height="462" viewBox="0 0 400 462" fill="none" xmlns="http://www.w3.org/2000/svg">
<g filter="url(#filter0_dd_5_4674)">
<g clip-path="url(#clip0_5_4674)">
<rect width="281.69" height="609.953" transform="translate(37.7747 36.2723)" fill="white"/>
<rect width="281.69" height="609.953" transform="translate(37.7747 60.3098)"/>
<path opacity="0.35" d="M292.172 49.6686H304.692C305.59 49.6686 306.319 50.3968 306.319 51.2955V55.8024C306.319 56.7012 305.59 57.4303 304.692 57.4303H292.172C291.273 57.4302 290.545 56.7012 290.545 55.8024V51.2955C290.545 50.3968 291.273 49.6687 292.172 49.6686Z" stroke="black" stroke-width="0.751174"/>
<path opacity="0.4" d="M307.446 52.0469V55.0516C308.051 54.7971 308.444 54.2051 308.444 53.5492C308.444 52.8933 308.051 52.3014 307.446 52.0469" fill="black"/>
<path d="M291.672 51.7965C291.672 51.2433 292.12 50.7949 292.673 50.7949H304.191C304.744 50.7949 305.193 51.2433 305.193 51.7965V55.302C305.193 55.8551 304.744 56.3035 304.191 56.3035H292.673C292.12 56.3035 291.672 55.8551 291.672 55.302V51.7965Z" fill="black"/>
<path d="M278.992 55.6012C279.95 54.7907 281.354 54.7907 282.312 55.6012C282.36 55.6447 282.388 55.7062 282.389 55.7711C282.39 55.836 282.365 55.8984 282.319 55.9439L280.819 57.4586C280.775 57.503 280.714 57.5279 280.652 57.5279C280.59 57.5279 280.53 57.5028 280.486 57.4586L278.985 55.9439C278.939 55.8984 278.913 55.8359 278.915 55.7711C278.916 55.7063 278.944 55.6447 278.992 55.6012ZM276.99 53.5806C279.054 51.6604 282.252 51.6604 284.316 53.5806C284.363 53.6257 284.389 53.6877 284.389 53.7525C284.39 53.8173 284.365 53.8794 284.319 53.9254L283.452 54.8023C283.362 54.8915 283.218 54.8932 283.126 54.8062C282.449 54.1924 281.566 53.8521 280.652 53.8521C279.738 53.8526 278.857 54.1928 278.179 54.8062C278.088 54.8932 277.943 54.8916 277.854 54.8023L276.987 53.9254C276.941 53.8795 276.916 53.8173 276.917 53.7525C276.917 53.6877 276.943 53.6257 276.99 53.5806ZM274.988 51.566C278.154 48.5318 283.15 48.5317 286.316 51.566C286.362 51.611 286.388 51.6727 286.388 51.7369C286.389 51.8011 286.363 51.8632 286.318 51.9088L285.449 52.7857C285.359 52.8752 285.214 52.8761 285.124 52.7877C283.917 51.6409 282.316 51.0016 280.652 51.0015C278.987 51.0016 277.387 51.6409 276.18 52.7877C276.089 52.8763 275.943 52.8757 275.854 52.7857L274.986 51.9088C274.941 51.8631 274.915 51.8012 274.916 51.7369C274.916 51.6727 274.942 51.611 274.988 51.566Z" fill="black"/>
<path d="M259.871 54.5508C260.286 54.5508 260.623 54.887 260.623 55.3018V56.8047C260.623 57.2194 260.286 57.5557 259.871 57.5557H259.12C258.706 57.5555 258.37 57.2193 258.369 56.8047V55.3018C258.37 54.8871 258.706 54.5509 259.12 54.5508H259.871ZM263.377 53.0488C263.792 53.0488 264.128 53.3849 264.128 53.7998V56.8047C264.128 57.2194 263.792 57.5557 263.377 57.5557H262.626C262.211 57.5557 261.875 57.2194 261.875 56.8047V53.7998C261.875 53.3849 262.211 53.0488 262.626 53.0488H263.377ZM266.883 51.2959C267.298 51.2961 267.634 51.6322 267.634 52.0469V56.8047C267.634 57.2193 267.298 57.5555 266.883 57.5557H266.131C265.717 57.5554 265.38 57.2193 265.38 56.8047V52.0469C265.38 51.6322 265.716 51.2961 266.131 51.2959H266.883ZM270.388 49.543C270.803 49.543 271.139 49.8792 271.139 50.2939V56.8047C271.139 57.2194 270.803 57.5557 270.388 57.5557H269.637C269.222 57.5556 268.886 57.2194 268.886 56.8047V50.2939C268.886 49.8792 269.222 49.543 269.637 49.543H270.388Z" fill="black"/>
<path d="M65.809 57.4978C67.8281 57.4978 69.0275 55.9188 69.0275 53.2449C69.0275 52.2381 68.835 51.3908 68.4663 50.7361C67.9327 49.7183 67.0139 49.1681 65.853 49.1681C64.1254 49.1681 62.9041 50.329 62.9041 51.9575C62.9041 53.487 64.0044 54.5983 65.5174 54.5983C66.4472 54.5983 67.2009 54.1637 67.575 53.4099H67.5916C67.5916 53.4099 67.6136 53.4099 67.6191 53.4099C67.6301 53.4099 67.6686 53.4099 67.6686 53.4099C67.6686 55.2255 66.9809 56.3094 65.82 56.3094C65.1378 56.3094 64.6096 55.9353 64.428 55.3356H63.0141C63.2507 56.6395 64.3565 57.4978 65.809 57.4978ZM65.8585 53.4705C64.9452 53.4705 64.296 52.8213 64.296 51.9135C64.296 51.0277 64.9782 50.351 65.864 50.351C66.7498 50.351 67.432 51.0387 67.432 51.9355C67.432 52.8213 66.7663 53.4705 65.8585 53.4705Z" fill="black"/>
<path d="M71.3495 57.4207C71.8721 57.4207 72.2298 57.0466 72.2298 56.5515C72.2298 56.0508 71.8721 55.6822 71.3495 55.6822C70.8323 55.6822 70.4692 56.0508 70.4692 56.5515C70.4692 57.0466 70.8323 57.4207 71.3495 57.4207ZM71.3495 53.2944C71.8721 53.2944 72.2298 52.9258 72.2298 52.4306C72.2298 51.93 71.8721 51.5614 71.3495 51.5614C70.8323 51.5614 70.4692 51.93 70.4692 52.4306C70.4692 52.9258 70.8323 53.2944 71.3495 53.2944Z" fill="black"/>
<path d="M77.3796 57.3052H78.7386V55.8252H79.8114V54.6258H78.7386V49.3662H76.7359C75.333 51.4788 74.2161 53.2449 73.5009 54.5598V55.8252H77.3796V57.3052ZM74.8158 54.5763C75.7401 52.9478 76.5654 51.6439 77.3246 50.5215H77.4016V54.6588H74.8158V54.5763Z" fill="black"/>
<path d="M82.8376 57.3052H84.257V49.3662H82.8431L80.7689 50.8186V52.1831L82.7441 50.7966H82.8376V57.3052Z" fill="black"/>
</g>
<path d="M333.294 185.717H334.406C335.02 185.717 335.517 186.217 335.517 186.834V259.762C335.517 260.379 335.02 260.879 334.406 260.879H333.294V185.717Z" fill="#303030"/>
<path d="M24.2225 276.506L23.1108 276.506C22.4968 276.506 21.999 276.006 21.999 275.39L21.999 231.484C21.999 230.867 22.4968 230.368 23.1108 230.368L24.2225 230.368L24.2225 276.506Z" fill="#303030"/>
<path d="M24.2225 215.484L23.1108 215.484C22.4968 215.484 21.999 214.984 21.999 214.368L21.999 170.462C21.999 169.845 22.4968 169.346 23.1108 169.346L24.2225 169.346L24.2225 215.484Z" fill="#333333"/>
<path d="M24.2225 147.021L23.1108 147.021C22.4968 147.021 21.999 146.521 21.999 145.904L21.999 124.323C21.999 123.707 22.4968 123.207 23.1108 123.207L24.2225 123.207L24.2225 147.021Z" fill="#333333"/>
<path fill-rule="evenodd" clip-rule="evenodd" d="M26.5805 55.4236C24.2225 62.7098 24.2225 71.713 24.2225 89.7195V592.778C24.2225 610.785 24.2225 619.788 26.5805 627.074C31.346 641.8 42.8449 653.345 57.5117 658.13C64.7686 660.498 73.7357 660.498 91.6697 660.498H265.846C283.78 660.498 292.747 660.498 300.004 658.13C314.671 653.345 326.17 641.8 330.936 627.074C333.293 619.788 333.293 610.785 333.293 592.778V89.7194C333.293 71.713 333.293 62.7098 330.936 55.4236C326.17 40.6976 314.671 29.1522 300.004 24.3674C292.747 22 283.78 22 265.846 22H91.6697C73.7357 22 64.7686 22 57.5117 24.3674C42.8449 29.1522 31.346 40.6976 26.5805 55.4236ZM102.788 40.2322V43.5809L102.841 43.5793L102.788 43.953C102.788 52.7894 109.922 59.9526 118.723 59.9526H238.794C247.595 59.9526 254.729 52.7894 254.729 43.953L254.676 43.5793L254.729 43.5809V40.2322C254.729 37.9717 256.554 36.1392 258.805 36.1392L268.352 36.1392C283.276 36.1392 290.738 36.1392 296.69 38.3971C306.044 41.9461 313.428 49.36 316.963 58.7521C319.211 64.7274 319.211 72.2197 319.211 87.2041V595.294C319.211 610.278 319.211 617.77 316.963 623.746C313.428 633.138 306.044 640.552 296.69 644.101C290.738 646.358 283.276 646.358 268.352 646.358H89.1648C74.2406 646.358 66.7785 646.358 60.8272 644.101C51.4729 640.552 44.0888 633.138 40.5541 623.746C38.3053 617.77 38.3053 610.278 38.3053 595.294V87.2041C38.3053 72.2197 38.3053 64.7274 40.5541 58.7521C44.0888 49.36 51.4729 41.9461 60.8272 38.3971C66.7785 36.1392 74.2406 36.1392 89.1649 36.1392L98.7115 36.1392C100.963 36.1392 102.788 37.9717 102.788 40.2322Z" fill="#333333"/>
<path fill-rule="evenodd" clip-rule="evenodd" d="M266.143 23.4884H91.3736C73.6578 23.4884 64.9757 23.4976 57.9702 25.783C43.7547 30.4206 32.6096 41.6107 27.9907 55.8836C25.7144 62.9174 25.7053 71.6345 25.7053 89.4218V593.076C25.7053 610.863 25.7144 619.58 27.9907 626.614C32.6096 640.887 43.7547 652.077 57.9702 656.715C64.9757 659 73.6578 659.009 91.3736 659.009H266.143C283.859 659.009 292.541 659 299.547 656.715C313.762 652.077 324.907 640.887 329.526 626.614C331.803 619.58 331.812 610.863 331.812 593.076V89.4219C331.812 71.6345 331.803 62.9174 329.526 55.8836C324.907 41.6107 313.762 30.4206 299.547 25.783C292.541 23.4976 283.859 23.4884 266.143 23.4884ZM27.2858 55.6536C24.9641 62.8278 24.9641 71.6925 24.9641 89.4218V593.076C24.9641 610.805 24.9641 619.67 27.2858 626.844C31.978 641.344 43.3 652.711 57.7411 657.423C64.8865 659.754 73.7155 659.754 91.3736 659.754H266.143C283.801 659.754 292.63 659.754 299.776 657.423C314.217 652.711 325.539 641.344 330.231 626.844C332.553 619.67 332.553 610.805 332.553 593.076V89.4219C332.553 71.6925 332.553 62.8278 330.231 55.6536C325.539 41.1542 314.217 29.7864 299.776 25.0753C292.63 22.7443 283.801 22.7443 266.143 22.7443H91.3736C73.7155 22.7443 64.8865 22.7443 57.7411 25.0753C43.3 29.7864 31.978 41.1542 27.2858 55.6536Z" fill="#303030"/>
<path fill-rule="evenodd" clip-rule="evenodd" d="M30.107 56.5733C27.9304 63.2991 27.9304 71.6098 27.9304 88.2311V594.266C27.9304 610.888 27.9304 619.198 30.107 625.924C34.5059 639.517 45.1203 650.175 58.6589 654.591C65.3576 656.777 73.6349 656.777 90.1893 656.777H267.331C283.885 656.777 292.162 656.777 298.861 654.591C312.4 650.175 323.014 639.517 327.413 625.924C329.59 619.198 329.59 610.888 329.59 594.266V88.2311C329.59 71.6098 329.59 63.2991 327.413 56.5733C323.014 42.9801 312.4 32.3229 298.861 27.9062C292.162 25.7208 283.885 25.7208 267.331 25.7208H90.1893C73.6349 25.7208 65.3576 25.7208 58.6589 27.9062C45.1203 32.3229 34.5059 42.9801 30.107 56.5733ZM102.789 40.2321V43.5809L102.842 43.5792L102.789 43.953C102.789 52.7893 109.923 59.9526 118.724 59.9526H238.795C247.596 59.9526 254.73 52.7893 254.73 43.953L254.677 43.5792L254.73 43.5809V40.2321C254.73 37.9717 256.555 36.1392 258.806 36.1392L268.353 36.1392C283.277 36.1392 290.739 36.1392 296.691 38.3971C306.045 41.946 313.429 49.36 316.964 58.752C319.213 64.7274 319.213 72.2196 319.213 87.2041V595.293C319.213 610.278 319.213 617.77 316.964 623.746C313.429 633.138 306.045 640.552 296.691 644.1C290.739 646.358 283.277 646.358 268.353 646.358H89.166C74.2418 646.358 66.7797 646.358 60.8283 644.1C51.4741 640.552 44.0899 633.138 40.5552 623.746C38.3064 617.77 38.3064 610.278 38.3064 595.293V87.2041C38.3064 72.2196 38.3064 64.7274 40.5552 58.752C44.0899 49.36 51.4741 41.946 60.8283 38.3971C66.7797 36.1392 74.2418 36.1392 89.166 36.1392L98.7126 36.1392C100.964 36.1392 102.789 37.9717 102.789 40.2321Z" fill="#121515"/>
<rect x="267.33" y="22" width="4.44705" height="3.72085" fill="#414141"/>
<rect x="329.589" y="85.9985" width="3.70594" height="4.46502" fill="#414141"/>
<rect x="24.2235" y="85.9985" width="3.70589" height="4.46502" fill="#414141"/>
<path fill-rule="evenodd" clip-rule="evenodd" d="M210.259 51.7668C213.534 51.7668 216.188 49.1014 216.188 45.8135C216.188 42.5255 213.534 39.8601 210.259 39.8601C206.984 39.8601 204.33 42.5255 204.33 45.8135C204.33 49.1014 206.984 51.7668 210.259 51.7668Z" fill="#262C2D"/>
<path fill-rule="evenodd" clip-rule="evenodd" d="M210.258 49.5344C212.305 49.5344 213.964 47.8685 213.964 45.8135C213.964 43.7585 212.305 42.0927 210.258 42.0927C208.212 42.0927 206.552 43.7585 206.552 45.8135C206.552 47.8685 208.212 49.5344 210.258 49.5344Z" fill="#121515"/>
<path opacity="0.4" fill-rule="evenodd" clip-rule="evenodd" d="M210.259 45.07C210.669 45.07 211.001 44.7366 211.001 44.3254C211.001 43.9143 210.669 43.5809 210.259 43.5809C209.85 43.5809 209.518 43.9143 209.518 44.3254C209.518 44.7366 209.85 45.07 210.259 45.07Z" fill="#636F73"/>
<path fill-rule="evenodd" clip-rule="evenodd" d="M160.601 45.8134C160.601 44.5805 161.6 43.5809 162.833 43.5809H194.686C195.919 43.5809 196.918 44.5805 196.918 45.8134V45.8134C196.918 47.0464 195.919 48.046 194.686 48.046H162.833C161.6 48.046 160.601 47.0464 160.601 45.8134V45.8134Z" fill="#262C2D"/>
</g>
<defs>
<filter id="filter0_dd_5_4674" x="0.966161" y="0.967137" width="404.132" height="730.141" filterUnits="userSpaceOnUse" color-interpolation-filters="sRGB">
<feFlood flood-opacity="0" result="BackgroundImageFix"/>
<feColorMatrix in="SourceAlpha" type="matrix" values="0 0 0 0 0 0 0 0 0 0 0 0 0 0 0 0 0 0 127 0" result="hardAlpha"/>
<feMorphology radius="1.50235" operator="erode" in="SourceAlpha" result="effect1_dropShadow_5_4674"/>
<feOffset dx="12.0188" dy="12.0188"/>
<feGaussianBlur stdDeviation="12.0188"/>
<feColorMatrix type="matrix" values="0 0 0 0 0.0627451 0 0 0 0 0.0941176 0 0 0 0 0.156863 0 0 0 0.08 0"/>
<feBlend mode="normal" in2="BackgroundImageFix" result="effect1_dropShadow_5_4674"/>
<feColorMatrix in="SourceAlpha" type="matrix" values="0 0 0 0 0 0 0 0 0 0 0 0 0 0 0 0 0 0 127 0" result="hardAlpha"/>
<feMorphology radius="3.00469" operator="erode" in="SourceAlpha" result="effect2_dropShadow_5_4674"/>
<feOffset dx="24.0376" dy="24.0376"/>
<feGaussianBlur stdDeviation="24.0376"/>
<feColorMatrix type="matrix" values="0 0 0 0 0.0627451 0 0 0 0 0.0941176 0 0 0 0 0.156863 0 0 0 0.2 0"/>
<feBlend mode="normal" in2="effect1_dropShadow_5_4674" result="effect2_dropShadow_5_4674"/>
<feBlend mode="normal" in="SourceGraphic" in2="effect2_dropShadow_5_4674" result="shape"/>
</filter>
<clipPath id="clip0_5_4674">
<rect width="281.69" height="609.953" fill="white" transform="translate(37.7747 36.2723)"/>
</clipPath>
</defs>
</svg>
