<?xml version="1.0" encoding="UTF-8"?>
<svg id="Layer_1" data-name="Layer 1" xmlns="http://www.w3.org/2000/svg" viewBox="0 0 2000 2000">
  <defs>
    <style>
      .cls-1, .cls-2 {
        stroke-width: 0px;
      }

      .cls-2 {
        fill: red;
      }
    </style>
  </defs>
  <g>
    <path class="cls-1" d="M350.82,1247.73c-7.77-2.71-13.77-6.3-18.01-10.75l4.73-9.29c4.13,4.13,9.61,7.47,16.46,10.02,6.84,2.55,13.9,3.83,21.18,3.83,10.21,0,17.87-1.87,22.98-5.62,5.11-3.75,7.66-8.61,7.66-14.58,0-4.56-1.39-8.2-4.16-10.92-2.77-2.71-6.17-4.81-10.19-6.27-4.02-1.47-9.61-3.07-16.78-4.81-8.58-2.17-15.43-4.26-20.53-6.27-5.11-2.01-9.48-5.08-13.12-9.21-3.64-4.13-5.46-9.72-5.46-16.79,0-5.76,1.52-11,4.56-15.72,3.04-4.73,7.71-8.5,14.01-11.33,6.3-2.82,14.12-4.24,23.47-4.24,6.52,0,12.9.9,19.15,2.69,6.25,1.79,11.65,4.27,16.21,7.41l-4.07,9.61c-4.78-3.15-9.89-5.51-15.32-7.09-5.43-1.57-10.76-2.36-15.97-2.36-10,0-17.52,1.93-22.57,5.78-5.05,3.86-7.58,8.83-7.58,14.91,0,4.56,1.39,8.23,4.16,11,2.77,2.77,6.25,4.89,10.43,6.36,4.18,1.47,9.8,3.07,16.87,4.81,8.36,2.06,15.13,4.1,20.29,6.11,5.16,2.01,9.53,5.05,13.12,9.13,3.59,4.07,5.38,9.59,5.38,16.54,0,5.76-1.55,11-4.64,15.73-3.1,4.73-7.85,8.47-14.26,11.24-6.41,2.77-14.29,4.16-23.63,4.16-8.47,0-16.6-1.36-24.36-4.07Z"/>
    <path class="cls-1" d="M730.27,1136.76v114.07h-11.9v-52.64h-71.38v52.64h-12.06v-114.07h12.06v50.84h71.38v-50.84h11.9Z"/>
    <path class="cls-1" d="M1039.08,1240.4v10.43h-80.66v-114.07h78.22v10.43h-66.16v40.58h58.99v10.27h-58.99v42.37h68.6Z"/>
    <path class="cls-1" d="M1347.64,1201.7c4.07,4.84,6.11,11.06,6.11,18.66,0,9.78-3.61,17.3-10.84,22.57-7.23,5.27-17.9,7.9-32.02,7.9h-52.47v-114.07h49.21c12.71,0,22.57,2.55,29.58,7.66,7.01,5.11,10.51,12.33,10.51,21.67,0,6.3-1.55,11.65-4.64,16.05-3.1,4.4-7.36,7.69-12.79,9.86,7.5,1.63,13.28,4.86,17.35,9.7ZM1270.48,1146.7v41.39h36.34c9.23,0,16.35-1.76,21.35-5.3,5-3.53,7.5-8.66,7.5-15.4s-2.5-11.87-7.5-15.4c-5-3.53-12.12-5.3-21.35-5.3h-36.34ZM1333.87,1235.67c5.21-3.48,7.82-8.91,7.82-16.3,0-14.23-10.32-21.35-30.96-21.35h-40.25v42.86h40.25c10.21,0,17.93-1.74,23.14-5.21Z"/>
    <path class="cls-1" d="M1643.82,1220.35h-63.55l-13.69,30.47h-12.55l52.15-114.07h11.9l52.15,114.07h-12.71l-13.69-30.47ZM1639.42,1210.58l-27.38-61.27-27.38,61.27h54.76Z"/>
  </g>
  <g>
    <g>
      <path class="cls-1" d="M189.05,1012.72c-22.56-12.12-40.28-28.94-53.19-50.45-12.91-21.51-19.36-45.82-19.36-72.94s6.45-51.43,19.36-72.94c12.91-21.51,30.63-38.33,53.19-50.45,22.55-12.12,47.91-18.19,76.07-18.19,23.72,0,45.17,4.17,64.34,12.52,19.16,8.35,35.26,20.34,48.3,35.98l-40.67,37.55c-18.52-21.38-41.46-32.07-68.83-32.07-16.95,0-32.07,3.71-45.37,11.15-13.3,7.43-23.66,17.79-31.09,31.09-7.43,13.3-11.15,28.42-11.15,45.37s3.72,32.07,11.15,45.37c7.43,13.3,17.79,23.66,31.09,31.09,13.3,7.43,28.42,11.15,45.37,11.15,27.38,0,50.32-10.82,68.83-32.46l40.67,37.55c-13.04,15.91-29.2,28.03-48.5,36.37-19.3,8.34-40.81,12.52-64.53,12.52-27.9,0-53.13-6.06-75.68-18.19Z"/>
      <path class="cls-1" d="M595.21,967.55h-127.11l-24.25,58.67h-64.92l122.02-273.77h62.58l122.41,273.77h-66.49l-24.25-58.67ZM575.26,919.45l-43.41-104.82-43.41,104.82h86.82Z"/>
      <path class="cls-1" d="M963.63,1026.22l-.39-164.26-80.57,135.32h-28.55l-80.18-131.8v160.74h-59.45v-273.77h52.41l102.47,170.13,100.9-170.13h52.02l.78,273.77h-59.45Z"/>
      <path class="cls-1" d="M1269.66,764.57c17.86,8.08,31.61,19.56,41.26,34.42,9.64,14.86,14.47,32.46,14.47,52.8s-4.83,37.61-14.47,52.6c-9.65,15-23.4,26.47-41.26,34.42-17.86,7.96-38.92,11.93-63.16,11.93h-55.15v75.48h-63.36v-273.77h118.5c24.25,0,45.3,4.04,63.16,12.12ZM1246.39,886.79c9.91-8.21,14.86-19.88,14.86-35s-4.96-27.18-14.86-35.39c-9.91-8.21-24.38-12.32-43.41-12.32h-51.62v95.04h51.62c19.03,0,33.5-4.11,43.41-12.32Z"/>
      <path class="cls-1" d="M1399.51,998.45c-21.77-21.64-32.66-52.54-32.66-92.69v-153.31h63.36v150.97c0,49.02,20.34,73.53,61.01,73.53,19.81,0,34.94-5.93,45.37-17.79,10.43-11.86,15.64-30.44,15.64-55.73v-150.97h62.58v153.31c0,40.16-10.89,71.05-32.66,92.69-21.77,21.64-52.21,32.46-91.32,32.46s-69.56-10.82-91.32-32.46Z"/>
      <path class="cls-1" d="M1704.57,1022.11c-20.21-5.87-36.44-13.49-48.69-22.88l21.51-47.71c11.73,8.6,25.68,15.52,41.85,20.73,16.16,5.22,32.33,7.82,48.5,7.82,17.99,0,31.29-2.67,39.89-8.02,8.6-5.34,12.91-12.45,12.91-21.31,0-6.51-2.54-11.93-7.63-16.23-5.08-4.3-11.61-7.75-19.56-10.36-7.96-2.6-18.71-5.48-32.27-8.6-20.86-4.95-37.94-9.91-51.23-14.86-13.3-4.95-24.71-12.91-34.22-23.86-9.52-10.95-14.27-25.55-14.27-43.8,0-15.9,4.3-30.31,12.91-43.22,8.6-12.91,21.57-23.14,38.91-30.7,17.34-7.56,38.52-11.34,63.55-11.34,17.46,0,34.55,2.09,51.23,6.26,16.68,4.17,31.29,10.17,43.8,17.99l-19.56,48.11c-25.29-14.34-50.59-21.51-75.87-21.51-17.73,0-30.84,2.87-39.31,8.6-8.48,5.74-12.71,13.3-12.71,22.68s4.89,16.36,14.67,20.92c9.78,4.57,24.7,9.06,44.78,13.49,20.86,4.96,37.94,9.91,51.23,14.86,13.3,4.96,24.7,12.78,34.22,23.47,9.51,10.69,14.28,25.17,14.28,43.41,0,15.64-4.37,29.92-13.1,42.83-8.74,12.91-21.84,23.14-39.31,30.7-17.47,7.56-38.72,11.34-63.75,11.34-21.64,0-42.57-2.93-62.77-8.8Z"/>
    </g>
    <circle class="cls-2" cx="267.31" cy="889.47" r="52.01"/>
  </g>
</svg>