<svg width="42" height="42" viewBox="0 0 42 42" fill="none" xmlns="http://www.w3.org/2000/svg">
<path d="M34.1802 0.0715332H7.67682C3.43703 0.0715332 0 3.50856 0 7.74835V34.2517C0 38.4915 3.43703 41.9285 7.67682 41.9285H34.1802C38.4199 41.9285 41.857 38.4915 41.857 34.2517V7.74835C41.857 3.50856 38.4199 0.0715332 34.1802 0.0715332Z" fill="#E30B12"/>
<path d="M26.4484 30.2306C24.8465 31.1649 23.0291 31.6666 21.1747 31.6862C19.3203 31.7059 17.4927 31.2429 15.8713 30.3428C14.2499 29.4427 12.8905 28.1363 11.9265 26.5521C10.9626 24.9678 10.4272 23.16 10.3731 21.3063C10.3189 19.4526 10.7478 17.6167 11.6176 15.9788C12.4875 14.341 13.7683 12.9575 15.3344 11.9643C16.9005 10.971 18.698 10.4022 20.5504 10.3136C22.4027 10.225 24.2463 10.6197 25.9001 11.4589H29.1901C27.3542 9.88965 25.1041 8.88403 22.7103 8.56292C20.3165 8.24181 17.8809 8.61888 15.6963 9.6488C13.5117 10.6787 11.671 12.3177 10.3955 14.3686C9.12001 16.4196 8.464 18.7953 8.50632 21.2102C8.54865 23.625 9.28752 25.9763 10.6341 27.9813C11.9807 29.9863 13.8776 31.5597 16.097 32.5124C18.3164 33.4652 20.7637 33.7567 23.1447 33.3519C25.5258 32.9471 27.7393 31.8632 29.5191 30.2306H26.4484Z" fill="#FBFFFE" stroke="#FBFFFE" stroke-width="0.456954" stroke-miterlimit="10"/>
<path d="M28.6601 14.5479C28.6398 14.5393 28.6181 14.5349 28.5961 14.5349C28.5741 14.5349 28.5524 14.5393 28.5322 14.5479L26.7043 15.4435L27.4355 15.8091L29.2633 14.8586L28.6601 14.5479Z" fill="#FBFFFE"/>
<path d="M29.7569 15.0779L29.6472 15.0231L27.7828 15.9918L27.8925 16.0284L28.6053 16.3939L30.488 15.4435L29.7569 15.0779Z" fill="#FBFFFE"/>
<path d="M27.7827 15.9919L27.4354 15.8091L29.2998 14.8586L29.6471 15.0231L27.7827 15.9919Z" fill="#FBFFFE"/>
<path d="M28.4042 16.6498V18.6239L26.5764 17.6917C26.5651 17.669 26.5592 17.6439 26.5592 17.6186C26.5592 17.5932 26.5651 17.5682 26.5764 17.5455V15.7177L28.4042 16.6498Z" fill="#FBFFFE"/>
<path d="M30.6524 15.7177L28.8246 16.6498V18.6239L30.6524 17.6369V15.7177Z" fill="#FBFFFE"/>
<path d="M22.3541 13.305C22.4771 13.0107 22.6951 12.7661 22.9735 12.6104C23.2518 12.4546 23.5743 12.3967 23.8895 12.4459C24.2272 12.5123 24.5347 12.6853 24.7668 12.9394L25.3152 12.8297C25.4308 12.8123 25.5487 12.8381 25.6465 12.9021C25.7443 12.9662 25.8151 13.0641 25.8452 13.177V13.2867L24.9862 13.4329L22.2079 13.9264C22.2198 13.7123 22.2693 13.5019 22.3541 13.305Z" fill="#FBFFFE"/>
<path d="M22.2261 14.3285L25.37 13.7802C25.5618 14.053 25.664 14.3788 25.6624 14.7123C25.7527 14.9869 25.7765 15.2789 25.7321 15.5644C25.6876 15.8499 25.576 16.1209 25.4066 16.3549C25.2371 16.589 25.0146 16.7795 24.7572 16.9109C24.4998 17.0424 24.215 17.1109 23.926 17.1109C23.637 17.1109 23.3522 17.0424 23.0948 16.9109C22.8374 16.7795 22.6149 16.589 22.4455 16.3549C22.276 16.1209 22.1645 15.8499 22.12 15.5644C22.0755 15.2789 22.0994 14.9869 22.1896 14.7123C22.1927 14.5837 22.2049 14.4554 22.2261 14.3285Z" fill="#FBFFFE"/>
<path d="M17.6749 18.5142L19.8866 16.3208C20.0399 16.1561 20.2272 16.0266 20.4355 15.9414C20.6438 15.8562 20.8681 15.8173 21.0929 15.8273C21.3146 15.8259 21.534 15.8726 21.7359 15.9641C21.9379 16.0556 22.1176 16.1898 22.2627 16.3573L23.8347 17.8744C24.4224 18.462 25.1864 18.8408 26.0098 18.9529C26.2278 18.9875 26.4264 19.0983 26.5703 19.2657C26.7143 19.433 26.7941 19.646 26.7957 19.8668C26.7969 19.9981 26.7697 20.1281 26.7161 20.2479C26.6625 20.3678 26.5836 20.4747 26.485 20.5613C26.3827 20.6489 26.2631 20.7137 26.1339 20.7515C26.0047 20.7893 25.8689 20.7993 25.7356 20.7807C24.5106 20.6165 23.377 20.0432 22.5186 19.1539L22.3358 18.9529C22.2889 18.9038 22.232 18.8653 22.1689 18.8401C22.1059 18.8149 22.0381 18.8035 21.9703 18.8066C21.8397 18.8075 21.7149 18.8601 21.623 18.9529L20.6177 19.9947C20.5701 20.0392 20.5322 20.0929 20.5062 20.1527C20.4803 20.2124 20.4669 20.2769 20.4669 20.342C20.4669 20.4071 20.4803 20.4716 20.5062 20.5313C20.5322 20.5911 20.5701 20.6448 20.6177 20.6893L21.2392 21.329C21.7302 21.812 22.0124 22.4682 22.0251 23.1568V23.2848L20.7274 21.9687C19.9201 21.1695 18.8292 20.7226 17.6932 20.7258H17.4373C17.2121 20.4321 17.09 20.0724 17.09 19.7022C17.1296 19.247 17.3383 18.8232 17.6749 18.5142Z" fill="#FBFFFE"/>
<path d="M29.0622 27.7264C28.7048 28.0911 28.2782 28.3809 27.8074 28.5788C27.3367 28.7766 26.8311 28.8785 26.3205 28.8785C25.8098 28.8785 25.3043 28.7766 24.8335 28.5788C24.3627 28.3809 23.9361 28.0911 23.5787 27.7264L22.5003 26.648L23.5787 25.5696L24.6572 26.648C25.0917 27.0751 25.6746 27.3175 26.2839 27.3243C26.8884 27.3205 27.4668 27.0773 27.8924 26.648C28.1074 26.437 28.2782 26.1853 28.3947 25.9075C28.5113 25.6298 28.5713 25.3316 28.5713 25.0304C28.5713 24.7292 28.5113 24.4309 28.3947 24.1532C28.2782 23.8755 28.1074 23.6237 27.8924 23.4127C27.4668 22.9834 26.8884 22.7402 26.2839 22.7365C25.6746 22.7432 25.0917 22.9856 24.6572 23.4127L22.5003 25.5696L20.3435 27.7264C19.8083 28.256 19.1285 28.6156 18.3895 28.7601C17.6506 28.9045 16.8854 28.8274 16.1901 28.5383C15.4949 28.2493 14.9005 27.7612 14.4818 27.1355C14.063 26.5097 13.8385 25.7742 13.8365 25.0212C13.8365 24.0129 14.237 23.0459 14.95 22.3329C15.663 21.6199 16.63 21.2194 17.6383 21.2194C18.1407 21.2163 18.6386 21.3133 19.1031 21.5048C19.5675 21.6962 19.9892 21.9782 20.3435 22.3343L21.4219 23.4127L20.3435 24.4912L19.2651 23.4127C18.9443 23.0876 18.534 22.8652 18.0864 22.7739C17.6388 22.6825 17.1742 22.7263 16.7515 22.8997C16.3289 23.0731 15.9674 23.3683 15.713 23.7477C15.4586 24.1271 15.3227 24.5736 15.3227 25.0304C15.3227 25.4872 15.4586 25.9336 15.713 26.313C15.9674 26.6924 16.3289 26.9876 16.7515 27.161C17.1742 27.3344 17.6388 27.3782 18.0864 27.2869C18.534 27.1955 18.9443 26.9731 19.2651 26.648L21.4219 24.4912L23.5787 22.3343C24.096 21.7469 24.7819 21.3335 25.5429 21.1505C26.3039 20.9674 27.1028 21.0237 27.8306 21.3116C28.5584 21.5995 29.1796 22.1051 29.6094 22.7592C30.0392 23.4133 30.2566 24.1841 30.232 24.9664C30.2321 25.4814 30.1286 25.9911 29.9277 26.4653C29.7267 26.9395 29.4324 27.3683 29.0622 27.7264Z" fill="#FBFFFE"/>
</svg>
