<svg width="57" height="64" viewBox="0 0 57 64" fill="none" xmlns="http://www.w3.org/2000/svg">
<g clip-path="url(#clip0_1403_47519)">
<path d="M45.8665 55.6196C41.7314 58.0918 37.0094 59.4109 32.1917 59.4397C28.0924 59.4049 24.0535 58.4471 20.375 56.6375C16.6965 54.8279 13.4729 52.2129 10.9436 48.9867C8.41425 45.7605 6.64412 42.006 5.76465 38.0019C4.88519 33.9979 4.91896 29.8472 5.86349 25.8579C6.80802 21.8687 8.63904 18.1435 11.2206 14.9589C13.8021 11.7743 17.0678 9.21217 20.7753 7.46268C24.4828 5.71318 28.5367 4.8213 32.6361 4.85327C36.7355 4.88523 40.775 5.84021 44.4547 7.6473H52.7592C48.0716 3.65139 42.3303 1.0933 36.2246 0.280109C30.1189 -0.533078 23.9082 0.433202 18.3381 3.06295C12.7681 5.6927 8.07537 9.87416 4.82334 15.1054C1.57131 20.3365 -0.101818 26.3951 0.00479534 32.5539C0.111409 38.7126 1.99324 44.7096 5.42438 49.8251C8.85552 54.9407 13.6901 58.9572 19.3479 61.3926C25.0056 63.828 31.246 64.5787 37.3199 63.5547C43.3939 62.5306 49.0431 59.7754 53.5896 55.6196H45.8665Z" fill="#E30B12" stroke="#E30B12" stroke-width="1.13495" stroke-miterlimit="10"/>
<path d="M51.5412 15.5645C51.4851 15.5375 51.4236 15.5234 51.3613 15.5234C51.299 15.5234 51.2375 15.5375 51.1813 15.5645L46.5308 17.862L48.4132 18.8032L53.1744 16.3672L51.5412 15.5645Z" fill="#E30B12"/>
<path d="M54.3094 16.9482L54.0602 16.8098L49.299 19.2458L49.5481 19.3842L51.3751 20.27L56.1917 17.8617L54.3094 16.9482Z" fill="#E30B12"/>
<path d="M49.299 19.2461L48.4131 18.8032L53.1467 16.3672L54.0602 16.8101L49.299 19.2461Z" fill="#E30B12"/>
<path d="M50.9876 20.9618V25.9998L46.3371 23.4531C46.2752 23.4208 46.2225 23.3734 46.1838 23.3154C46.1451 23.2573 46.1216 23.1904 46.1156 23.1209V18.5535L50.9876 20.9618Z" fill="#E30B12"/>
<path d="M56.607 18.5535L51.7627 20.9341V25.9998L56.607 23.4531V18.5535Z" fill="#E30B12"/>
<path d="M35.4028 12.3807C35.7302 11.6084 36.3133 10.9722 37.0543 10.5791C37.7953 10.1859 38.649 10.0597 39.472 10.2215C40.3375 10.3492 41.1206 10.8052 41.6589 11.4949L43.0983 11.1904C43.3945 11.1395 43.6989 11.2026 43.9505 11.3669C44.202 11.5312 44.3822 11.7846 44.4547 12.0762V12.353L42.2955 12.7405L35.209 13.9862C35.1617 13.4434 35.2276 12.8966 35.4028 12.3807Z" fill="#E30B12"/>
<path d="M35.0983 14.9832L43.126 13.5991C43.5031 14.177 43.7399 14.8351 43.8175 15.5208C43.8952 16.2064 43.8116 16.9008 43.5734 17.5484C43.3351 18.196 42.9489 18.779 42.4454 19.2509C41.9419 19.7228 41.3351 20.0705 40.6734 20.2663C40.0117 20.4621 39.3134 20.5006 38.6342 20.3787C37.955 20.2568 37.3137 19.9779 36.7614 19.5642C36.2091 19.1505 35.7611 18.6135 35.4531 17.9959C35.1451 17.3784 34.9857 16.6975 34.9876 16.0074C34.9818 15.6627 35.019 15.3187 35.0983 14.9832Z" fill="#E30B12"/>
<path d="M23.472 25.723L29.0083 20.1866C29.3994 19.7667 29.8729 19.4317 30.3991 19.2027C30.9254 18.9737 31.4932 18.8555 32.0671 18.8555C32.641 18.8555 33.2088 18.9737 33.7351 19.2027C34.2613 19.4317 34.7348 19.7667 35.1259 20.1866L39.1121 24.0898C40.6076 25.5897 42.5512 26.5615 44.6484 26.8579C45.2108 26.9439 45.7239 27.2285 46.0946 27.6602C46.4652 28.0918 46.6691 28.6419 46.6692 29.2109C46.6715 29.5507 46.6011 29.8871 46.4627 30.1975C46.3242 30.5078 46.1209 30.7849 45.8664 31.0102C45.6031 31.2287 45.2976 31.3906 44.969 31.4858C44.6404 31.5811 44.2957 31.6076 43.9564 31.5638C40.8018 31.1472 37.8779 29.6853 35.6519 27.4116L35.1813 26.8856C35.0623 26.7655 34.9197 26.6715 34.7624 26.6095C34.6051 26.5476 34.4367 26.5191 34.2678 26.5257C34.1005 26.5191 33.9338 26.5506 33.7803 26.6177C33.6269 26.6848 33.4907 26.7859 33.382 26.9133L30.7799 29.6815C30.5481 29.9236 30.4187 30.2459 30.4187 30.5811C30.4187 30.9163 30.5481 31.2386 30.7799 31.4808L32.3854 33.114C33.0284 33.7328 33.5371 34.4773 33.8799 35.3012C34.2228 36.125 34.3925 37.0107 34.3785 37.9029V38.2074L31.1675 34.5257C30.1567 33.5157 28.9568 32.7147 27.6364 32.1685C26.316 31.6223 24.9009 31.3416 23.472 31.3423H22.9183C22.3366 30.5371 22.0264 29.5675 22.0325 28.5742C22.1461 27.4793 22.6585 26.4645 23.472 25.723Z" fill="#E30B12"/>
<path d="M52.51 49.2254C51.6041 50.1394 50.5261 50.8649 49.3383 51.3599C48.1505 51.855 46.8764 52.1099 45.5896 52.1099C44.3028 52.1099 43.0287 51.855 41.8409 51.3599C40.6531 50.8649 39.5751 50.1394 38.6692 49.2254L35.901 46.4573L38.6692 43.6891L41.4374 46.4573C42.5452 47.546 44.0363 48.1561 45.5896 48.1561C47.1429 48.1561 48.634 47.546 49.7418 46.4573C50.8319 45.3511 51.4392 43.858 51.4304 42.305C51.4282 41.1514 51.0845 40.0243 50.4426 39.0658C49.8006 38.1073 48.8892 37.3604 47.8233 36.9192C46.7574 36.478 45.5847 36.3624 44.4531 36.5869C43.3216 36.8113 42.2818 37.3658 41.465 38.1805L35.9287 43.7168L30.3924 49.2531C29.2617 50.392 27.8672 51.234 26.3329 51.7042C24.7985 52.1745 23.1717 52.2585 21.5971 51.9488C20.0224 51.6391 18.5486 50.9452 17.3066 49.9289C16.0647 48.9126 15.0929 47.6052 14.4778 46.1229C13.8627 44.6407 13.6232 43.0294 13.7806 41.4323C13.938 39.8353 14.4874 38.3018 15.3801 36.9681C16.2727 35.6345 17.481 34.542 18.8975 33.7876C20.314 33.0333 21.8948 32.6405 23.4997 32.6441C26.0709 32.6296 28.5454 33.6234 30.3924 35.4123L33.1605 38.1805L30.3924 40.9486L27.6242 38.1805C26.8049 37.3699 25.7641 36.8199 24.6328 36.5996C23.5015 36.3793 22.3303 36.4986 21.2667 36.9425C20.2031 37.3864 19.2946 38.1351 18.6556 39.0943C18.0166 40.0534 17.6756 41.1802 17.6756 42.3327C17.6756 43.4852 18.0166 44.612 18.6556 45.5712C19.2946 46.5303 20.2031 47.279 21.2667 47.7229C22.3303 48.1668 23.5015 48.2861 24.6328 48.0659C25.7641 47.8456 26.8049 47.2955 27.6242 46.485L33.1605 40.9486L38.6969 35.4123C39.6028 34.4983 40.6807 33.7729 41.8685 33.2778C43.0563 32.7827 44.3304 32.5278 45.6173 32.5278C46.9041 32.5278 48.1782 32.7827 49.366 33.2778C50.5538 33.7729 51.6318 34.4983 52.5377 35.4123C53.4516 36.3182 54.1771 37.3962 54.6722 38.584C55.1673 39.7718 55.4222 41.0459 55.4222 42.3327C55.4222 43.6196 55.1673 44.8937 54.6722 46.0815C54.1771 47.2692 53.4516 48.3472 52.5377 49.2531L52.51 49.2254Z" fill="#E30B12"/>
</g>
<defs>
<clipPath id="clip0_1403_47519">
<rect width="56.607" height="64" fill="white"/>
</clipPath>
</defs>
</svg>
