<svg width="32" height="32" viewBox="0 0 32 32" fill="none" xmlns="http://www.w3.org/2000/svg">
<path d="M3.24844 6.86186C2.66675 7.52399 2.66675 8.65922 2.66675 10.9297V23.4541C2.66675 25.0621 2.66675 25.8661 3.08621 26.4713C3.50567 27.0766 4.23903 27.3309 5.70574 27.8394L7.43132 28.4376C8.3659 28.7616 9.08502 29.0109 9.68852 29.1714C10.0822 29.2762 10.4445 28.9671 10.4445 28.5597V8.35952C10.4445 8.02763 10.1996 7.74754 9.8779 7.66593C9.35893 7.53429 8.7351 7.31802 7.8801 7.0216C5.8091 6.30362 4.7736 5.94462 3.9857 6.30919C3.70596 6.43862 3.45496 6.62678 3.24844 6.86186Z" fill="#FEFEFE"/>
<path d="M16.8273 4.64066L14.7793 6.06067C14.0384 6.57438 13.4954 6.95086 13.0318 7.21927C12.812 7.34648 12.6667 7.5766 12.6667 7.83051V27.8931C12.6667 28.3872 13.1787 28.6957 13.595 28.4294C14.0417 28.1437 14.5533 27.789 15.1729 27.3593L17.2209 25.9393C17.9617 25.4256 18.5047 25.0491 18.9684 24.7807C19.1882 24.6535 19.3334 24.4234 19.3334 24.1695V4.1069C19.3334 3.61278 18.8214 3.30427 18.4052 3.57054C17.9584 3.85633 17.4469 4.21104 16.8273 4.64066Z" fill="#FEFEFE"/>
<path d="M26.2944 4.16063L24.5688 3.5624C23.6342 3.23836 22.9152 2.9891 22.3116 2.82855C21.9179 2.72383 21.5556 3.03285 21.5556 3.44024V23.6405C21.5556 23.9724 21.8006 24.2524 22.1223 24.3341C22.6412 24.4657 23.2651 24.682 24.1201 24.9784C26.1911 25.6964 27.2266 26.0554 28.0145 25.6908C28.2942 25.5614 28.5452 25.3732 28.7517 25.1381C29.3334 24.476 29.3334 23.3408 29.3334 21.0703V8.5459C29.3334 6.93792 29.3334 6.13393 28.914 5.52865C28.4945 4.92337 27.7611 4.66912 26.2944 4.16063Z" fill="#FEFEFE"/>
</svg>
