<svg width="27" height="30" viewBox="0 0 27 30" fill="none" xmlns="http://www.w3.org/2000/svg">
<g filter="url(#filter0_ii_81_1047)">
<path d="M1.47964 1.29179C1.15954 1.63059 0.970336 2.15639 0.970336 2.83729V27.1649C0.970336 27.8469 1.15954 28.3716 1.47964 28.7104L1.56104 28.7896L15.1889 15.1617V15.0011V14.8405L1.56104 1.21149L1.47964 1.29179Z" fill="url(#paint0_linear_81_1047)"/>
<path d="M19.7308 19.7058L15.1889 15.1617V15.0011V14.8405L19.7319 10.2975L19.8342 10.3558L25.2165 13.4138C26.7532 14.2872 26.7532 15.7161 25.2165 16.5906L19.8342 19.6486L19.7308 19.7058Z" fill="url(#paint1_linear_81_1047)"/>
<g filter="url(#filter1_i_81_1047)">
<path d="M19.8342 19.6475L15.1878 15.0011L1.47962 28.7104C1.98562 29.2472 2.82271 29.3132 3.76541 28.7786L19.8342 19.6475Z" fill="url(#paint2_linear_81_1047)"/>
</g>
<path d="M19.8342 10.3547L3.76541 1.22469C2.82271 0.688994 1.98562 0.756094 1.47962 1.29289L15.1889 15.0022L19.8342 10.3547Z" fill="url(#paint3_linear_81_1047)"/>
</g>
<defs>
<filter id="filter0_ii_81_1047" x="0.970337" y="0.855011" width="25.3987" height="28.2928" filterUnits="userSpaceOnUse" color-interpolation-filters="sRGB">
<feFlood flood-opacity="0" result="BackgroundImageFix"/>
<feBlend mode="normal" in="SourceGraphic" in2="BackgroundImageFix" result="shape"/>
<feColorMatrix in="SourceAlpha" type="matrix" values="0 0 0 0 0 0 0 0 0 0 0 0 0 0 0 0 0 0 127 0" result="hardAlpha"/>
<feOffset dy="-0.15"/>
<feComposite in2="hardAlpha" operator="arithmetic" k2="-1" k3="1"/>
<feColorMatrix type="matrix" values="0 0 0 0 0 0 0 0 0 0 0 0 0 0 0 0 0 0 0.12 0"/>
<feBlend mode="normal" in2="shape" result="effect1_innerShadow_81_1047"/>
<feColorMatrix in="SourceAlpha" type="matrix" values="0 0 0 0 0 0 0 0 0 0 0 0 0 0 0 0 0 0 127 0" result="hardAlpha"/>
<feOffset dy="0.15"/>
<feComposite in2="hardAlpha" operator="arithmetic" k2="-1" k3="1"/>
<feColorMatrix type="matrix" values="0 0 0 0 1 0 0 0 0 1 0 0 0 0 1 0 0 0 0.25 0"/>
<feBlend mode="normal" in2="effect1_innerShadow_81_1047" result="effect2_innerShadow_81_1047"/>
</filter>
<filter id="filter1_i_81_1047" x="1.47961" y="15.0011" width="18.3546" height="14.1468" filterUnits="userSpaceOnUse" color-interpolation-filters="sRGB">
<feFlood flood-opacity="0" result="BackgroundImageFix"/>
<feBlend mode="normal" in="SourceGraphic" in2="BackgroundImageFix" result="shape"/>
<feColorMatrix in="SourceAlpha" type="matrix" values="0 0 0 0 0 0 0 0 0 0 0 0 0 0 0 0 0 0 127 0" result="hardAlpha"/>
<feOffset dy="-0.15"/>
<feComposite in2="hardAlpha" operator="arithmetic" k2="-1" k3="1"/>
<feColorMatrix type="matrix" values="0 0 0 0 0 0 0 0 0 0 0 0 0 0 0 0 0 0 0.08 0"/>
<feBlend mode="normal" in2="shape" result="effect1_innerShadow_81_1047"/>
</filter>
<linearGradient id="paint0_linear_81_1047" x1="13.9809" y1="2.57989" x2="-4.47928" y2="21.0401" gradientUnits="userSpaceOnUse">
<stop stop-color="#00A0FF"/>
<stop offset="0.0066" stop-color="#00A1FF"/>
<stop offset="0.2601" stop-color="#00BEFF"/>
<stop offset="0.5122" stop-color="#00D2FF"/>
<stop offset="0.7604" stop-color="#00DFFF"/>
<stop offset="1" stop-color="#00E3FF"/>
</linearGradient>
<linearGradient id="paint1_linear_81_1047" x1="27.2169" y1="15.0011" x2="0.601365" y2="15.0011" gradientUnits="userSpaceOnUse">
<stop stop-color="#FFE000"/>
<stop offset="0.4087" stop-color="#FFBD00"/>
<stop offset="0.7754" stop-color="#FFA500"/>
<stop offset="1" stop-color="#FF9C00"/>
</linearGradient>
<linearGradient id="paint2_linear_81_1047" x1="17.3109" y1="17.5244" x2="-7.72342" y2="42.5587" gradientUnits="userSpaceOnUse">
<stop stop-color="#FF3A44"/>
<stop offset="1" stop-color="#C31162"/>
</linearGradient>
<linearGradient id="paint3_linear_81_1047" x1="-1.97285" y1="-6.80553" x2="9.20569" y2="4.37301" gradientUnits="userSpaceOnUse">
<stop stop-color="#32A071"/>
<stop offset="0.0685" stop-color="#2DA771"/>
<stop offset="0.4762" stop-color="#15CF74"/>
<stop offset="0.8009" stop-color="#06E775"/>
<stop offset="1" stop-color="#00F076"/>
</linearGradient>
</defs>
</svg>
