<svg width="50" height="50" viewBox="0 0 50 50" fill="none" xmlns="http://www.w3.org/2000/svg">
<path d="M34.636 4.86646H16.0799C13.6152 4.86646 12.3828 4.86646 11.3925 5.47852C10.4021 6.09059 9.851 7.19285 8.74875 9.39736L5.87257 16.6679C5.20806 18.3477 4.62665 20.3276 5.74523 21.7461C6.49565 22.6977 7.65891 23.3086 8.9649 23.3086C11.2283 23.3086 13.0631 21.4737 13.0631 19.2103C13.0631 21.4737 14.898 23.3086 17.1614 23.3086C19.4248 23.3086 21.2596 21.4737 21.2596 19.2103C21.2596 21.4737 23.0945 23.3086 25.3579 23.3086C27.6213 23.3086 29.4561 21.4737 29.4561 19.2103C29.4561 21.4737 31.291 23.3086 33.5544 23.3086C35.8178 23.3086 37.6526 21.4737 37.6526 19.2103C37.6526 21.4737 39.4875 23.3086 41.7509 23.3086C43.0569 23.3086 44.2202 22.6977 44.9707 21.746C46.0893 20.3276 45.5079 18.3477 44.8434 16.6679L41.9672 9.39736C40.8649 7.19285 40.3138 6.09059 39.3235 5.47852C38.3331 4.86646 37.1008 4.86646 34.636 4.86646Z" fill="#E30B12"/>
<path fill-rule="evenodd" clip-rule="evenodd" d="M41.7509 44.312H45.8491C46.6979 44.312 47.386 45.0001 47.386 45.8488C47.386 46.6976 46.6979 47.3857 45.8491 47.3857H4.86668C4.0179 47.3857 3.32983 46.6976 3.32983 45.8488C3.32983 45.0001 4.0179 44.312 4.86668 44.312H8.96492L8.96493 26.3822C10.4887 26.3822 11.9015 25.907 13.0632 25.0967C14.2249 25.907 15.6376 26.3822 17.1614 26.3822C18.6852 26.3822 20.098 25.907 21.2597 25.0967C22.4213 25.907 23.8341 26.3822 25.3579 26.3822C26.8817 26.3822 28.2945 25.907 29.4562 25.0967C30.6178 25.907 32.0306 26.3822 33.5544 26.3822C35.0782 26.3822 36.491 25.907 37.6526 25.0967C38.8143 25.907 40.2271 26.3822 41.7509 26.3822L41.7509 44.312ZM20.2351 44.312H30.4807V38.6769C30.4807 36.7618 30.4807 35.8042 30.0689 35.0909C29.7991 34.6237 29.4111 34.2357 28.9439 33.9659C28.2306 33.5541 27.273 33.5541 25.3579 33.5541C23.4428 33.5541 22.4852 33.5541 21.7719 33.9659C21.3047 34.2357 20.9167 34.6237 20.6469 35.0909C20.2351 35.8042 20.2351 36.7618 20.2351 38.6769V44.312Z" fill="#E30B12"/>
</svg>
